HIERARCHY
ROOT Hips
{
    OFFSET 11.995140075683594 80.53943634033203 -16.20987319946289
    CHANNELS 6 Xposition Yposition Zposition Zrotation Xrotation Yrotation
    JOINT RightUpLeg
    {
        OFFSET -11.995140075683594 0.0 0.0
        CHANNELS 3 Zrotation Xrotation Yrotation
        JOINT RightLeg
        {
            OFFSET 0.0 -40.01475524902344 0.0
            CHANNELS 3 Zrotation Xrotation Yrotation
            JOINT RightFoot
            {
                OFFSET 0.0 -40.524681091308594 0.0
                CHANNELS 3 Zrotation Xrotation Yrotation
                End Site RightFoot_End
                {
                    OFFSET 0.0 0.0 16.20987319946289
                }
            }
        }
    }
    JOINT LeftUpLeg
    {
        OFFSET 11.995140075683594 0.0 0.0
        CHANNELS 3 Zrotation Xrotation Yrotation
        JOINT LeftLeg
        {
            OFFSET 0.0 -40.01475524902344 0.0
            CHANNELS 3 Zrotation Xrotation Yrotation
            JOINT LeftFoot
            {
                OFFSET 0.0 -40.524681091308594 0.0
                CHANNELS 3 Zrotation Xrotation Yrotation
                End Site LeftFoot_End
                {
                    OFFSET 0.0 0.0 16.20987319946289
                }
            }
        }
    }
    JOINT Spine
    {
        OFFSET 0.0 23.084762573242188 0.0
        CHANNELS 3 Zrotation Xrotation Yrotation
        JOINT Spine3
        {
            OFFSET 0.0 25.396142959594727 0.0
            CHANNELS 3 Zrotation Xrotation Yrotation
            JOINT Neck
            {
                OFFSET 0.0 19.330669403076172 0.0
                CHANNELS 3 Zrotation Xrotation Yrotation
                End Site Head
                {
                    OFFSET 0.0 7.7322678565979 0.0
                }
            }
            JOINT LeftArm
            {
                OFFSET 17.908926010131836 0.0 0.0
                CHANNELS 3 Zrotation Xrotation Yrotation
                JOINT LeftForeArm
                {
                    OFFSET 30.562816619873047 0.0 0.0
                    CHANNELS 3 Zrotation Xrotation Yrotation
                    JOINT LeftHand
                    {
                        OFFSET 26.666568756103516 0.0 0.0
                        CHANNELS 3 Zrotation Xrotation Yrotation
                        End Site LeftWristEndSite
                        {
                            OFFSET 10.666627883911133 0.0 0.0
                        }
                    }
                }
            }
            JOINT RightArm
            {
                OFFSET -17.908926010131836 0.0 0.0
                CHANNELS 3 Zrotation Xrotation Yrotation
                JOINT RightForeArm
                {
                    OFFSET -30.562816619873047 0.0 0.0
                    CHANNELS 3 Zrotation Xrotation Yrotation
                    JOINT RightHand
                    {
                        OFFSET -26.666568756103516 0.0 0.0
                        CHANNELS 3 Zrotation Xrotation Yrotation
                        End Site RightWristEndSite
                        {
                            OFFSET -10.666627883911133 0.0 0.0
                        }
                    }
                }
            }
        }
    }
}
MOTION
Frames: 5
Frame Time: 0.03333333333333333
-0.0 85.70332336425781 0.0 1.6921295797463587 -3.4512068720890263 -43.64081800651331 -12.261905617817071 -0.8489569226316518 0.5819523900867716 6.291720520116189 15.332026869875502 2.09413606309629 3.975693351829396e-16 -1.5902773407317584e-15 2.4848083448933726e-15 4.813743679848166 10.757902125182842 -1.2262000173411607 -6.632813124732839 7.368996622696915 0.5473919720272628 0.0 0.0 2.5842006786891076e-15 -3.1288445034091645 9.223240262007074 0.8363849213048471 8.448573275122913e-07 2.924865486840567e-07 13.704803232623314 -2.7866407029358604 -18.477340385829336 5.201274255151815 -140.8346114214707 -45.179913970365305 -55.822601499170716 -63.46735324128077 5.60770224652177e-07 -9.290745711157031e-07 7.951386703658791e-16 -1.5902773407317582e-15 1.1034765745125397e-32 129.49850645451914 -39.90372085582399 43.46695397077058 60.52760209402788 1.163810987349793e-06 -1.8657842179348773e-06 -7.95138670365879e-16 -3.975693351829395e-16 -2.758691436281349e-33
-0.0 85.70332336425781 0.0 2.1517421218109787 -3.6227075608802632 -44.07011782549356 -13.276179914323583 -2.934212101723909 -0.17860013883915685 6.649130711809474 16.9764148690525 2.522999956504157 2.069018577211012e-33 1.987846675914698e-16 -1.1927080055488188e-15 4.157614441857837 11.188115596312663 -0.93746482534685 -5.557045246513191 5.537925919957736 0.373762382862673 -2.0690185772110117e-32 3.975693351829396e-16 5.9635400277440935e-15 -3.4448738378406687 10.278187172149073 0.998158610987213 2.9512847513415298e-08 -1.1968699594188454e-06 14.1792271414031 -3.5061714930636634 -23.07043411484107 3.8079058132881025 -140.8796918475506 -41.13854775748263 -54.314431572041165 -60.50293002142355 -1.7172966782872732e-07 -9.428770612057634e-07 0.0 0.0 0.0 133.19195070271584 -39.23275741743223 46.32009820701032 58.19069385409216 1.8739233311873885e-06 -8.025926002209337e-07 1.5902773407317584e-15 7.951386703658792e-16 -1.1034765745125397e-32
-0.0 85.70332336425781 0.0 2.0799174172741877 -3.397878786201576 -42.75498485419566 -13.172982915965436 -2.244636449979996 0.07060723959508323 7.090690997119699 16.439414178050697 2.2608978154487813 7.951386703658794e-16 -1.5902773407317588e-15 -7.454425034680119e-16 4.975496175220454 10.660699239449952 -1.1407540088349213 -6.290133183475034 6.014548163392606 0.38953137887365286 7.58640144977371e-33 -3.975693351829397e-16 2.186631343506168e-15 -3.331678611655357 10.69731451944431 0.9998507078545801 -4.293651067631579e-07 6.936067291527137e-07 13.278705224974304 -2.3802582336833535 -23.381715933436478 5.259546491572774 -140.25502362872456 -38.699682021921035 -53.403998596813004 -58.75538169788618 -1.2489413973081306e-06 -1.1604109977247817e-06 -7.951386703658791e-16 0.0 0.0 133.53380603689027 -36.368927391843584 46.39333753637655 56.20692073885359 -2.8834533648981105e-06 -2.3462288727674976e-06 7.951386703658792e-16 0.0 0.0
-0.0 85.70332336425781 0.0 2.6528366613146863 -2.954563957671267 -39.8450992450056 -13.775747851028248 -3.955174884650222 -0.6171070110292902 8.033428684431804 17.980206967552746 2.2282284250423126 -7.845028771925086e-33 1.9878466759146977e-16 4.522351187705937e-15 5.8247937624480235 9.461452524677847 -1.085442691833896 -6.624988950299893 5.9510686068735295 0.2901353004508534 0.0 0.0 -5.963540027744093e-16 -3.1112353043848775 11.88886386873496 0.9850469046326961 -2.3516227470216364e-07 4.188775178113266e-08 11.206114813268668 -2.9414194511361704 -26.279677963291423 4.230384845773894 -140.83632823158797 -36.6629565850671 -53.30526516744241 -57.061300726820384 -1.2958755342151408e-06 5.291104389733729e-06 -7.95138670365879e-16 0.0 0.0 136.30111075987824 -34.93199532019497 49.33073812749947 53.94260373514985 -5.2485703736408954e-09 -4.0828896104122405e-06 0.0 0.0 -6.3611093629270335e-15
-0.0 85.70332336425781 0.0 3.0746593201839083 -2.592766150054641 -39.1171927303758 -14.325544878385873 -7.09500962913186 -1.6363818010344253 8.468273776871815 22.131866401583927 2.7011216084938416 -3.975693351829394e-16 -1.789062008323228e-15 9.044702375411874e-15 6.114691777665323 8.337248166947429 -0.9666371717579619 -6.884653621932118 5.547594556134853 0.254291204219082 -7.951386703658792e-16 -1.5902773407317584e-15 -3.1805546814635168e-15 -3.266604162667 12.582130232173212 1.0544251391721602 1.2491094024517056e-07 1.7251646761402706e-06 10.528024785537232 -2.4306648930657473 -27.84792464779628 4.185488443457835 -140.74946269205236 -34.857072554218945 -53.039137852102535 -56.359630627460824 9.484159875151798e-07 -3.5027995708520626e-07 0.0 0.0 0.0 136.31784540289462 -33.89025673154587 49.93774102025122 53.750699222832466 1.9500405052966054e-06 1.630422854545421e-06 -7.951386703658791e-16 0.0 0.0
